<?xml version="1.0" standalone="no"?>
<!DOCTYPE svg PUBLIC "-//W3C//DTD SVG 20010904//EN"
 "http://www.w3.org/TR/2001/REC-SVG-20010904/DTD/svg10.dtd">
<svg version="1.0" xmlns="http://www.w3.org/2000/svg"
 width="375.000000pt" height="375.000000pt" viewBox="0 0 375.000000 375.000000"
 preserveAspectRatio="xMidYMid meet">
<metadata>
Created by potrace 1.14, written by Peter Selinger 2001-2017
</metadata>
<g transform="translate(0.000000,375.000000) scale(0.100000,-0.100000)"
fill="#000000" stroke="none">
<path d="M3287 3564 c-1 -1 -24 -5 -52 -8 -81 -11 -129 -19 -185 -31 -14 -3
-34 -7 -45 -9 -92 -18 -294 -90 -343 -122 -23 -15 -49 -15 -192 2 -48 5 -304
5 -360 0 -43 -5 -86 -11 -140 -21 -14 -3 -41 -7 -60 -10 -52 -9 -151 -34 -185
-48 -16 -6 -32 -12 -35 -12 -18 -1 -149 -56 -220 -93 -329 -171 -558 -442
-612 -724 l-12 -67 -71 -26 c-280 -108 -529 -309 -662 -535 -25 -42 -78 -173
-88 -215 -4 -16 -9 -39 -12 -50 -18 -74 -12 -262 10 -355 33 -136 111 -278
227 -409 65 -74 79 -104 75 -164 -4 -66 -41 -131 -118 -211 -88 -91 -114 -151
-91 -211 8 -20 53 -43 101 -51 119 -20 401 6 547 50 25 8 46 12 46 11 0 -8
205 67 262 96 55 28 66 30 122 24 33 -4 70 -9 81 -12 29 -6 312 -5 365 2 182
23 231 32 360 71 47 15 87 26 90 27 7 1 104 43 176 78 34 16 102 55 150 87
256 169 420 390 473 636 12 54 22 80 33 82 29 4 184 75 263 121 357 206 563
517 563 849 0 237 -85 441 -266 633 -72 76 -80 132 -32 227 16 33 59 91 96
128 70 73 84 98 89 158 6 78 -44 100 -228 103 -65 1 -119 0 -120 -1z"/>
</g>
</svg>
