<?xml version="1.0" standalone="no"?>
<!DOCTYPE svg PUBLIC "-//W3C//DTD SVG 20010904//EN"
 "http://www.w3.org/TR/2001/REC-SVG-20010904/DTD/svg10.dtd">
<svg version="1.0" xmlns="http://www.w3.org/2000/svg"
 width="515.000000pt" height="515.000000pt" viewBox="0 0 515.000000 515.000000"
 preserveAspectRatio="xMidYMid meet">
<metadata>
Created by potrace 1.14, written by Peter Selinger 2001-2017
</metadata>
<g transform="translate(0.000000,515.000000) scale(0.100000,-0.100000)"
fill="#000000" stroke="none">
<path d="M2370 4810 c0 -5 5 -10 11 -10 5 0 7 5 4 10 -3 6 -8 10 -11 10 -2 0
-4 -4 -4 -10z"/>
<path d="M2415 4810 c-3 -5 -1 -10 4 -10 6 0 11 5 11 10 0 6 -2 10 -4 10 -3 0
-8 -4 -11 -10z"/>
<path d="M2479 4818 c-5 -18 -6 -38 -1 -34 7 8 12 36 6 36 -2 0 -4 -1 -5 -2z"/>
<path d="M2635 4810 c-3 -5 -3 -10 2 -10 4 0 1 -5 -7 -11 -12 -8 -12 -10 -1
-7 8 2 15 12 17 21 3 19 -2 22 -11 7z"/>
<path d="M2695 4810 c-3 -5 -1 -10 4 -10 6 0 11 5 11 10 0 6 -2 10 -4 10 -3 0
-8 -4 -11 -10z"/>
<path d="M2153 4795 c0 -8 4 -12 9 -9 5 3 6 10 3 15 -9 13 -12 11 -12 -6z"/>
<path d="M2297 4785 c-4 -8 -3 -16 1 -19 4 -3 9 4 9 15 2 23 -3 25 -10 4z"/>
<path d="M2492 4779 c-10 -16 -17 -18 -25 -10 -6 6 -18 11 -26 11 -11 0 -12
-3 -4 -8 6 -4 -15 -8 -48 -9 -44 -2 -58 1 -53 10 4 7 -2 4 -14 -6 -11 -11 -26
-16 -32 -12 -6 4 -18 1 -27 -7 -14 -11 -16 -11 -8 2 8 13 7 13 -8 1 -9 -7 -17
-11 -17 -9 0 3 -26 -1 -57 -8 -56 -13 -78 -11 -68 6 3 5 1 11 -4 15 -6 3 -8
-5 -5 -18 2 -16 -1 -24 -11 -24 -8 0 -15 4 -15 9 0 5 -7 2 -16 -6 -8 -9 -24
-17 -35 -17 -21 -2 -26 -3 -49 -11 -75 -28 -183 -57 -192 -52 -6 4 -8 3 -5 -3
6 -10 -27 -27 -45 -24 -5 1 -8 -3 -8 -9 0 -5 -5 -10 -11 -10 -5 0 -7 6 -4 13
4 6 1 5 -7 -3 -7 -8 -26 -21 -43 -29 -36 -16 -57 -27 -102 -52 l-33 -19 4 26
c3 15 2 23 -2 19 -7 -7 -8 -12 -11 -41 0 -8 -5 -12 -11 -9 -5 3 -10 1 -10 -5
0 -7 -7 -10 -15 -6 -8 3 -14 0 -12 -7 1 -7 -6 -11 -15 -11 -10 1 -16 -2 -13
-6 5 -8 -33 -26 -47 -22 -5 1 -7 -1 -5 -6 1 -4 -3 -7 -8 -7 -5 0 -9 4 -7 8 1
5 -2 6 -7 2 -6 -3 -8 -12 -4 -20 3 -10 -1 -15 -12 -15 -9 0 -13 -4 -10 -10 3
-5 -1 -10 -9 -10 -9 0 -16 -5 -16 -12 0 -6 -3 -9 -6 -6 -3 3 -22 -9 -42 -28
-20 -19 -50 -41 -67 -49 -16 -8 -27 -15 -23 -15 4 0 -12 -18 -37 -41 -26 -24
-49 -38 -56 -33 -8 4 -9 3 -5 -5 11 -17 -12 -41 -32 -34 -9 3 -14 3 -10 -2 11
-11 -32 -67 -47 -62 -6 3 -18 1 -26 -5 -11 -8 -10 -9 4 -4 9 3 17 3 17 0 0 -6
-105 -132 -132 -157 -10 -10 -24 -15 -31 -11 -9 6 -9 4 1 -8 10 -12 10 -17 -1
-27 -8 -6 -16 -8 -20 -5 -3 3 -4 -2 -3 -13 2 -10 -3 -22 -10 -28 -14 -11 -46
-63 -68 -110 -8 -16 -24 -40 -35 -52 -12 -13 -22 -25 -22 -28 -3 -23 -13 -45
-20 -45 -5 0 -9 -7 -9 -15 0 -21 -52 -125 -60 -120 -4 3 -6 -7 -4 -20 1 -14
-2 -25 -7 -25 -6 0 -7 -5 -3 -12 5 -8 2 -9 -11 -4 -14 5 -15 3 -7 -6 7 -9 6
-23 -5 -48 -9 -19 -15 -38 -15 -42 1 -5 -2 -8 -8 -8 -5 0 -7 -6 -4 -14 3 -8 1
-17 -5 -20 -6 -4 -7 -14 -4 -23 5 -13 2 -15 -13 -9 -15 6 -17 5 -7 -5 18 -18
16 -29 -4 -29 -14 0 -15 -2 -5 -9 11 -6 11 -17 1 -57 -7 -27 -12 -51 -10 -52
1 -2 -6 -10 -16 -19 -10 -8 -12 -11 -4 -7 11 6 12 1 6 -22 -4 -16 -10 -45 -12
-64 -3 -19 -10 -38 -17 -42 -8 -6 -8 -8 1 -8 15 0 11 -23 -7 -46 -8 -10 -10
-15 -4 -11 8 4 11 -3 10 -23 0 -23 -5 -29 -16 -25 -12 5 -13 4 -2 -6 15 -16
17 -63 1 -54 -6 4 -5 -3 3 -14 11 -18 11 -23 -2 -31 -13 -9 -13 -10 0 -10 13
0 13 -1 0 -10 -10 -6 -11 -10 -2 -10 6 0 12 -5 12 -10 0 -7 -6 -7 -18 -1 -14
7 -19 6 -19 -4 0 -7 6 -11 13 -8 6 2 15 0 19 -6 3 -6 -2 -11 -12 -11 -15 0
-16 -2 -3 -10 17 -10 22 -98 7 -117 -6 -9 -6 -13 2 -13 6 0 11 -7 11 -15 0 -8
-6 -15 -12 -15 -10 0 -10 -2 -1 -8 6 -4 14 -30 17 -57 11 -108 18 -159 25
-179 6 -14 3 -25 -8 -33 -14 -12 -14 -12 1 -7 10 3 18 2 18 -4 0 -6 -6 -12
-12 -15 -10 -3 -10 -8 1 -18 9 -9 11 -9 7 -1 -4 6 -2 12 5 12 6 0 9 -8 6 -20
-3 -11 -1 -23 4 -26 5 -3 9 -18 9 -34 0 -16 5 -32 10 -35 8 -5 7 -12 -2 -23
-8 -10 -9 -13 -1 -9 13 8 28 -27 18 -43 -3 -5 -3 -10 2 -10 9 0 28 -48 46
-117 6 -24 16 -43 21 -43 5 0 1 -9 -10 -21 -10 -11 -14 -20 -9 -19 31 6 47 -1
40 -18 -17 -41 -17 -46 -3 -28 14 17 15 17 21 2 5 -11 3 -15 -4 -10 -7 4 -10
2 -8 -5 3 -7 8 -11 12 -9 9 4 50 -72 43 -80 -3 -2 -10 6 -15 19 -5 13 -10 19
-10 12 -1 -20 11 -43 23 -43 7 0 20 -17 29 -37 l17 -38 -26 30 c-27 30 -27 30
-10 2 9 -15 14 -32 11 -38 -4 -5 -1 -16 5 -24 10 -11 10 -15 1 -15 -7 0 -9 -5
-5 -12 4 -7 3 -8 -4 -4 -7 4 -12 3 -12 -3 0 -5 4 -12 9 -15 8 -5 -9 -74 -28
-106 -4 -8 -7 -23 -5 -32 1 -11 -4 -18 -14 -19 -11 0 -12 -2 -4 -6 17 -7 15
-23 -3 -23 -8 0 -15 -5 -15 -11 0 -5 4 -7 10 -4 5 3 10 -1 10 -9 0 -9 -5 -16
-10 -16 -6 0 -10 -6 -9 -13 6 -32 -15 -89 -35 -97 -18 -8 -19 -9 -2 -9 13 -1
16 -6 11 -18 -7 -19 -55 -200 -55 -209 0 -3 -4 -3 -9 1 -5 3 -13 1 -16 -5 -4
-6 -3 -9 2 -8 12 4 13 -8 7 -42 -4 -16 -11 -30 -16 -30 -5 0 -6 -4 -3 -10 10
-16 -26 -131 -39 -123 -6 4 -4 -2 4 -12 11 -14 11 -17 1 -11 -10 7 -12 4 -7
-12 4 -12 2 -23 -5 -28 -8 -5 -9 -3 -4 6 6 9 4 11 -4 5 -9 -5 -9 -11 -3 -17 7
-7 7 -21 0 -42 -5 -17 -11 -38 -13 -46 -2 -8 -6 -27 -10 -41 -6 -23 -3 -27 19
-31 14 -3 23 -1 20 3 -5 8 18 14 40 10 4 -1 13 3 20 8 17 14 84 22 91 11 4 -6
11 -8 16 -5 5 4 9 2 9 -4 0 -5 -5 -11 -12 -13 -7 -3 -5 -7 6 -11 9 -4 15 -3
12 2 -3 5 1 14 8 20 11 10 18 7 30 -11 9 -12 16 -18 16 -12 0 5 -5 15 -12 22
-9 9 -9 12 -1 12 7 0 15 -5 18 -10 4 -6 11 -8 16 -5 5 4 9 1 9 -6 0 -7 3 -9 6
-6 4 4 2 12 -4 19 -6 7 -10 16 -9 20 1 3 -2 10 -7 15 -5 4 -6 3 -2 -4 4 -8 0
-11 -14 -8 -11 2 -20 0 -20 -4 0 -4 -13 -7 -30 -7 -16 0 -30 3 -30 7 0 3 12 7
26 7 15 0 29 4 33 10 4 6 19 9 35 6 20 -3 25 -1 20 7 -4 8 -3 9 4 5 7 -4 18
-4 25 1 6 4 19 9 27 11 29 6 35 8 47 15 7 5 13 5 13 1 0 -3 8 0 17 7 12 10 14
10 9 1 -4 -7 -1 -15 8 -18 8 -3 18 -15 22 -27 6 -18 7 -19 16 -3 5 9 15 13 21
10 7 -4 9 -4 5 1 -4 4 0 13 8 20 15 11 15 12 0 12 -9 0 -16 -5 -16 -11 0 -13
-20 15 -20 28 0 4 7 6 15 3 8 -4 17 -2 20 4 4 5 10 7 15 4 5 -3 11 -1 15 5 4
6 10 8 15 5 5 -3 11 -1 15 5 3 5 12 10 18 10 8 0 8 -3 -1 -9 -8 -4 -14 -12
-14 -17 0 -5 -4 -8 -10 -6 -5 1 -6 -3 -2 -10 6 -10 5 -11 -8 -1 -8 7 -18 10
-21 6 -9 -8 43 -34 55 -27 5 3 7 12 4 20 -3 8 1 17 9 20 8 4 12 11 8 18 -3 6
-2 8 2 3 5 -4 17 1 27 10 11 10 19 13 18 8 -5 -24 1 -25 20 -4 10 13 19 18 20
12 0 -7 7 -13 16 -13 9 0 12 5 8 12 -4 7 -3 8 4 4 7 -4 12 -1 12 6 0 10 2 10
8 1 6 -10 12 -10 28 2 25 19 40 19 48 -1 5 -14 4 -15 -8 -5 -11 9 -20 6 -45
-15 -17 -14 -31 -21 -31 -14 0 6 -5 8 -13 3 -18 -11 -38 -13 -31 -2 3 5 0 9
-5 9 -15 0 -14 -15 3 -29 10 -8 16 -9 21 -2 7 13 51 8 47 -5 -2 -5 -13 -8 -25
-7 -20 3 -20 2 -4 -8 23 -14 53 7 37 26 -18 22 2 24 22 2 l20 -22 -16 27 c-15
25 -15 27 4 25 13 -1 19 -6 15 -16 -4 -11 -3 -12 10 -1 9 7 13 22 10 37 -2 14
-1 23 2 19 3 -3 13 0 21 7 13 10 14 9 8 -2 -6 -9 -5 -12 5 -9 8 3 13 12 11 19
-3 11 -1 12 9 1 15 -14 33 -16 24 -2 -4 6 1 7 11 3 11 -4 15 -3 10 5 -4 7 1
10 14 7 11 -2 22 0 25 5 3 5 14 7 25 5 11 -2 20 0 20 6 0 5 7 9 15 9 8 0 15
-4 15 -10 0 -5 -3 -9 -7 -9 -22 4 -24 -3 -8 -21 23 -26 30 -25 32 3 0 12 -1
16 -4 10 -3 -7 -9 -13 -15 -13 -6 0 -6 6 2 15 7 8 16 12 21 9 5 -3 9 -1 9 5 0
5 -6 12 -12 15 -7 3 -2 3 11 0 13 -4 21 -2 18 3 -6 10 14 9 51 -2 12 -4 22
-12 22 -18 0 -6 3 -7 6 -4 4 3 16 1 28 -5 11 -7 24 -12 28 -13 3 0 10 -4 15
-8 8 -8 9 -12 12 -38 1 -6 10 -8 23 -3 21 6 22 6 8 -12 -14 -18 -14 -18 3 -5
13 11 15 17 6 28 -10 11 -9 12 5 7 19 -7 21 -25 4 -43 -11 -11 -9 -11 9 0 12
7 19 17 17 21 -7 11 10 10 22 -2 5 -5 18 -11 29 -13 11 -2 28 -7 37 -11 9 -4
25 -9 35 -11 10 -2 18 -4 18 -5 0 -1 9 -3 19 -5 10 -2 22 -8 25 -12 3 -5 17
-10 30 -10 13 -1 27 -6 30 -11 3 -6 15 -10 26 -10 39 1 55 -2 55 -10 0 -4 -9
-8 -20 -9 -13 -1 -18 2 -14 9 5 7 2 8 -6 3 -10 -6 -9 -11 5 -21 13 -10 22 -11
31 -3 7 6 14 6 18 1 3 -6 -1 -12 -9 -16 -8 -3 -15 -11 -14 -18 0 -10 2 -10 6
0 2 6 9 10 14 6 5 -3 9 0 9 6 0 7 7 9 16 6 8 -3 12 -2 9 4 -3 6 -1 10 5 10 6
0 8 5 4 11 -4 8 -1 8 12 2 11 -6 31 -9 46 -8 21 1 25 -1 18 -10 -14 -17 25
-52 42 -38 17 14 50 13 45 -1 -2 -6 -13 -10 -23 -8 -15 2 -16 1 -4 -7 17 -11
26 -7 40 19 9 16 7 18 -10 15 -11 -2 -20 0 -20 6 0 5 10 7 23 5 12 -2 21 -10
19 -17 -1 -8 5 -5 13 5 9 12 15 15 15 7 0 -10 3 -11 14 -2 8 7 17 8 20 3 3 -5
21 -8 40 -7 19 0 33 -2 31 -5 -6 -9 71 -4 86 6 12 6 12 5 1 -8 -8 -10 -23 -15
-38 -12 -13 2 -24 0 -24 -6 0 -6 -4 -8 -10 -5 -5 3 -10 1 -10 -4 0 -12 27 -10
48 2 15 10 16 -5 0 -21 -9 -9 -9 -12 0 -12 7 0 12 4 12 10 0 5 8 7 18 4 14 -5
14 -4 2 5 -22 16 -5 24 20 9 18 -10 24 -10 27 0 3 6 10 9 16 5 7 -3 9 -2 4 2
-4 5 -18 10 -30 12 -18 2 -19 1 -7 -8 10 -7 11 -9 2 -7 -8 2 -13 8 -13 13 1
12 61 16 61 4 0 -4 7 -15 16 -24 9 -9 14 -19 10 -22 -3 -4 -12 -1 -18 5 -15
15 -28 15 -28 0 0 -6 3 -8 7 -5 3 4 12 2 19 -4 16 -13 37 -2 30 17 -3 7 -1 16
4 19 6 4 10 -2 11 -12 0 -16 1 -16 8 1 6 15 10 16 15 7 5 -7 -1 -22 -14 -36
-16 -17 -18 -25 -9 -30 7 -5 10 -4 6 2 -9 14 24 41 46 38 9 -2 17 1 17 7 0 6
-6 8 -14 5 -14 -6 -30 18 -21 32 2 4 -2 8 -10 8 -8 0 -15 -4 -15 -8 0 -4 -9
-6 -20 -4 -14 3 -18 0 -14 -8 4 -7 3 -8 -1 -4 -5 4 -10 13 -11 20 -1 9 16 12
62 11 36 -1 67 3 70 8 3 5 12 4 20 -3 10 -8 14 -8 14 0 0 6 5 11 11 11 5 0 7
-4 4 -10 -3 -5 -1 -10 4 -10 6 0 11 4 11 8 0 5 7 9 15 9 8 0 15 -4 15 -9 0 -5
5 -6 10 -3 6 4 8 10 6 14 -3 4 7 7 22 7 15 1 39 4 55 7 16 3 27 1 27 -5 0 -5
-7 -8 -15 -4 -8 3 -19 -2 -24 -12 -8 -12 -10 -13 -11 -3 0 8 -3 12 -6 8 -3 -3
1 -16 11 -29 10 -14 16 -17 14 -8 -3 29 1 36 21 36 11 0 18 -5 16 -11 -2 -5
-9 -9 -15 -8 -6 2 -11 -2 -11 -8 0 -6 7 -8 16 -5 9 3 18 6 20 6 2 0 4 7 4 15
0 8 5 15 11 15 5 0 7 -6 3 -13 -6 -9 -5 -9 7 0 10 8 19 9 27 3 7 -6 10 -7 7
-4 -3 4 0 13 6 20 7 8 6 14 -2 20 -8 4 -9 3 -5 -5 4 -6 4 -11 -1 -10 -4 1 -10
0 -13 -1 -16 -6 -50 -5 -50 2 0 7 23 12 43 9 4 0 7 4 7 10 0 6 7 9 15 6 8 -4
17 -2 20 3 3 5 14 7 25 5 11 -2 20 1 20 7 0 5 7 8 15 5 8 -4 17 -2 21 4 3 6
12 8 19 5 8 -3 16 0 19 7 3 9 5 9 5 0 1 -7 6 -13 12 -13 5 0 7 6 3 13 -4 6 -3
9 1 4 5 -4 19 0 33 9 13 8 26 13 30 10 3 -3 14 2 25 11 11 10 17 12 13 5 -4
-6 -2 -12 4 -12 7 0 8 -6 0 -19 -5 -11 -10 -23 -10 -28 1 -4 7 3 14 17 8 13
12 32 11 42 -2 10 0 16 5 13 5 -3 21 2 36 12 27 17 27 17 15 -5 -7 -12 -16
-20 -22 -17 -5 4 -9 1 -9 -5 0 -6 -4 -9 -8 -6 -9 5 -9 -30 0 -39 3 -3 11 2 19
12 9 11 10 14 2 9 -7 -4 -13 -2 -13 3 0 6 6 11 13 11 13 0 43 40 39 53 -1 5 2
6 8 2 5 -3 10 -2 10 3 0 8 25 19 60 26 3 1 16 9 30 17 76 48 98 58 104 44 3
-10 0 -12 -11 -8 -13 5 -15 2 -9 -12 4 -11 4 -16 0 -12 -4 4 -14 1 -22 -6 -13
-9 -14 -9 -8 1 4 6 2 12 -3 12 -6 0 -11 -5 -11 -11 0 -5 -4 -8 -8 -5 -4 2 -8
-4 -8 -14 0 -10 3 -17 7 -14 4 2 9 -2 12 -8 3 -9 12 -5 26 12 15 17 24 21 27
13 3 -7 10 -13 15 -13 6 0 8 4 5 9 -3 5 1 14 9 21 17 14 20 40 5 40 -5 0 -7
-6 -4 -13 3 -8 -2 -19 -9 -26 -12 -9 -16 -8 -20 4 -4 8 -1 14 6 12 7 -1 12 8
11 20 -1 15 3 20 14 15 11 -4 13 -2 7 9 -8 12 -6 12 8 0 20 -16 23 -26 5 -15
-10 6 -10 5 -1 -8 7 -8 9 -19 5 -23 -4 -5 -1 -5 6 -1 7 4 11 10 9 14 -2 4 4
15 14 24 12 12 19 13 22 5 2 -7 3 -4 2 5 -2 10 1 18 6 18 5 0 9 -6 9 -12 0 -7
10 0 21 15 16 21 24 25 35 17 9 -9 18 -9 31 0 15 9 14 10 -7 4 -22 -6 -23 -5
-11 10 8 9 21 14 29 11 12 -4 13 -3 2 10 -10 12 -10 15 0 15 7 0 19 -8 27 -17
13 -16 13 -16 4 4 -7 13 -7 24 -2 27 5 4 12 0 15 -6 3 -10 8 -8 16 4 6 10 18
15 28 12 14 -5 14 -4 2 4 -8 6 -18 8 -22 6 -4 -3 -8 0 -8 6 0 7 -7 10 -15 6
-8 -3 -15 -1 -15 4 0 6 7 10 16 10 10 0 14 5 10 16 -3 8 -2 12 4 9 6 -3 10 -1
10 6 0 6 8 1 18 -11 19 -23 45 -20 36 4 -3 7 3 19 12 27 15 12 16 12 9 -10 -5
-16 -4 -21 4 -17 6 4 11 15 11 24 1 15 3 14 17 -3 13 -16 15 -17 10 -2 -4 10
-1 17 6 17 7 0 4 5 -7 11 -14 9 -20 8 -26 -1 -6 -9 -9 -9 -13 1 -4 11 -6 11
-6 1 -1 -7 -6 -10 -13 -6 -6 4 -8 3 -4 -4 3 -6 1 -14 -5 -17 -5 -4 -8 -13 -5
-21 3 -8 1 -14 -3 -14 -16 0 -20 28 -5 34 8 3 13 9 12 13 -2 4 6 18 16 30 18
20 21 20 43 6 13 -9 26 -13 30 -9 3 3 1 6 -5 6 -6 0 -16 9 -22 19 -7 15 -7 19
5 17 8 -1 18 -6 22 -11 4 -4 2 -5 -6 0 -10 5 -12 4 -7 -4 4 -6 12 -9 17 -6 5
4 9 -1 9 -9 0 -8 4 -18 10 -21 6 -3 7 1 4 9 -4 11 2 19 17 26 23 10 22 10 -4
5 -21 -4 -27 -2 -21 6 4 7 3 9 -3 6 -6 -4 -14 0 -17 9 -5 12 -2 15 10 10 11
-4 15 -2 11 8 -3 8 2 21 11 29 14 12 19 13 29 2 10 -10 9 -14 -3 -19 -9 -3
-12 -1 -9 4 3 6 2 10 -4 10 -5 0 -13 -4 -16 -10 -3 -5 -2 -10 4 -10 6 0 8 -8
5 -17 -5 -17 -5 -17 6 0 6 9 16 17 22 17 6 0 5 -7 -3 -17 -13 -15 -12 -15 8
-2 13 8 18 16 12 20 -6 3 -10 9 -10 13 1 3 0 8 0 11 -6 21 -3 32 9 47 8 10 19
15 25 11 6 -4 8 0 4 10 -4 12 -2 14 10 10 12 -5 14 -3 8 8 -8 12 -6 12 8 0 21
-17 22 -35 1 -27 -9 3 -12 2 -9 -4 4 -6 1 -9 -7 -8 -8 2 -12 -4 -10 -16 3 -14
-1 -17 -12 -13 -14 6 -15 3 -5 -16 15 -28 24 -37 16 -15 -7 20 8 34 17 16 3
-7 3 -3 0 9 -5 23 26 49 41 35 4 -4 2 4 -4 16 -14 26 -5 45 9 22 9 -13 10 -13
11 0 1 8 1 18 0 23 -2 12 11 8 33 -10 12 -10 15 -11 9 -3 -7 8 -13 18 -13 23
0 4 6 5 13 1 8 -5 8 -2 -2 9 -7 9 -19 17 -25 17 -6 0 -4 -5 4 -11 12 -8 10 -9
-9 -4 -15 5 -21 3 -17 -3 4 -6 -2 -16 -13 -22 -32 -17 -35 7 -4 27 32 20 44
34 37 45 -2 4 5 12 16 18 11 6 19 16 17 23 -1 7 4 11 11 10 6 -2 13 2 13 7 1
6 2 16 3 23 1 15 28 17 38 2 16 -21 7 -27 -12 -10 -17 15 -20 16 -15 3 4 -9 1
-19 -4 -23 -6 -3 -8 -11 -5 -17 5 -7 2 -8 -6 -3 -8 5 -11 4 -7 -1 3 -6 2 -16
-4 -24 -7 -13 -9 -13 -9 -1 0 11 -4 9 -14 -4 -12 -17 -12 -21 2 -31 20 -13 52
-15 52 -2 0 4 -10 7 -21 5 -12 -1 -24 4 -26 11 -3 7 1 10 11 6 11 -4 16 -1 16
11 0 11 5 15 15 11 12 -4 13 -2 6 13 -10 18 -6 31 10 31 5 0 6 -6 3 -14 -3 -8
-1 -17 5 -21 7 -4 8 0 4 11 -5 13 -3 15 8 9 8 -4 11 -5 7 0 -4 4 -3 16 3 27 9
16 13 17 27 6 15 -11 15 -11 6 2 -14 20 -12 39 6 50 10 7 11 10 3 10 -7 0 -12
3 -10 8 1 4 -3 7 -8 7 -5 0 -9 -3 -8 -7 2 -5 -3 -8 -10 -8 -9 0 -9 -2 0 -8 9
-6 7 -11 -6 -19 -11 -7 -23 -8 -32 -2 -11 7 -11 9 -1 9 7 0 10 5 6 12 -5 7 -3
8 5 4 8 -5 14 0 18 13 3 12 10 21 15 21 5 0 7 4 3 9 -3 5 0 13 7 17 7 4 10 4
6 -1 -10 -11 29 -38 43 -30 7 5 6 12 -2 22 -11 12 -10 14 7 11 11 -2 19 3 19
11 0 8 -8 15 -18 17 -9 1 -15 -2 -12 -6 8 -14 -16 -23 -28 -11 -7 7 -6 12 6
17 9 3 14 10 11 15 -3 5 2 6 11 2 13 -4 16 -1 14 18 -4 29 7 50 24 44 7 -3 25
5 41 18 25 20 26 23 8 23 -11 0 -18 -5 -15 -10 4 -5 1 -6 -7 -1 -9 6 -11 4 -5
-5 6 -9 4 -11 -5 -5 -9 6 -11 4 -5 -6 7 -12 6 -12 -6 0 -11 10 -11 15 -1 18 6
3 10 9 7 13 -3 5 3 7 15 5 11 -2 22 1 26 6 4 6 11 6 20 -2 12 -10 13 -9 8 4
-3 9 -14 15 -24 14 -10 -1 -16 -5 -14 -9 3 -4 -2 -5 -11 -1 -12 4 -13 8 -5 13
6 4 11 10 11 14 -3 23 0 30 8 17 5 -8 11 -9 15 -3 3 6 2 13 -4 17 -6 4 -8 11
-4 16 3 5 10 7 15 4 5 -4 9 -1 9 4 0 6 -5 11 -11 11 -6 0 -1 13 10 29 11 15
17 31 14 35 -4 4 0 4 9 1 15 -6 15 -8 -3 -26 -24 -24 -24 -34 0 -36 21 -2 35
22 24 40 -4 6 0 8 10 4 20 -8 29 4 17 23 -7 11 -3 20 13 32 18 14 20 19 10 29
-18 18 -16 34 2 19 9 -7 18 -10 22 -6 3 3 1 6 -5 6 -7 0 -12 5 -12 11 0 5 5 7
10 4 6 -3 10 -1 10 4 0 17 -18 13 -40 -9 -11 -11 -20 -15 -20 -9 0 5 -6 7 -12
3 -7 -4 -5 2 6 14 10 12 21 20 25 18 18 -12 88 81 73 96 -7 7 -10 4 -9 -7 1
-10 -3 -20 -9 -22 -6 -2 -10 6 -9 19 1 12 7 24 13 26 7 2 10 8 7 12 -3 5 5 16
17 24 28 20 17 30 -34 35 -5 1 -8 5 -8 11 0 5 7 7 15 4 11 -5 13 -2 9 10 -3 9
-11 13 -18 10 -6 -3 -3 1 7 9 11 9 14 18 8 21 -7 5 -7 15 -1 31 5 14 7 25 4
25 -4 0 -1 7 6 15 10 12 10 15 -1 15 -10 0 -10 3 -3 8 6 4 10 15 8 25 -1 9 1
15 6 12 5 -3 7 17 5 45 -2 27 0 50 5 50 5 0 7 22 5 50 -2 27 0 52 5 55 4 3 6
14 3 25 -3 11 -1 20 3 20 5 0 9 -13 9 -29 1 -16 -3 -27 -7 -25 -4 3 -8 0 -8
-5 0 -6 7 -11 15 -11 12 0 14 8 10 33 -5 26 -4 30 6 20 16 -16 29 -17 29 -2 0
5 -4 8 -9 5 -5 -3 -13 0 -19 7 -10 13 -12 47 -3 47 4 0 12 9 19 21 11 17 11
25 -2 45 -10 14 -22 21 -31 18 -8 -4 -15 -1 -15 6 0 6 5 8 10 5 6 -3 10 -1 10
6 0 8 4 8 13 1 13 -11 42 -11 53 1 4 3 -5 4 -19 2 -26 -5 -53 17 -43 34 4 6
-2 8 -14 6 -11 -2 -18 0 -15 6 4 5 11 6 17 3 6 -4 8 -1 6 7 -3 8 -10 13 -15
12 -5 -1 -8 19 -8 45 1 26 -1 52 -4 57 -3 6 -6 26 -6 45 0 19 -3 40 -6 45 -3
6 -5 22 -4 38 1 15 -3 27 -9 27 -6 0 -3 5 7 11 19 11 23 29 6 29 -5 0 -7 -4
-4 -10 3 -5 1 -10 -5 -10 -7 0 -10 6 -7 14 3 8 3 17 -1 21 -4 4 -8 11 -8 16
-1 5 -2 10 -3 12 -2 1 -4 13 -6 27 -8 45 -10 55 -19 69 -6 10 -5 12 2 7 7 -4
12 -2 12 4 0 7 7 7 23 -1 17 -9 16 -6 -8 17 -31 30 -48 36 -25 9 7 -8 8 -15 2
-15 -15 0 -24 32 -12 44 7 7 14 5 22 -5 7 -8 20 -19 28 -24 9 -6 7 -2 -3 8
-11 9 -15 17 -11 17 5 0 2 5 -6 10 -8 5 -23 7 -34 4 -12 -4 -16 -2 -11 5 4 7
2 18 -4 25 -6 7 -12 22 -14 33 -2 12 -9 29 -17 39 -9 11 -10 15 -2 10 6 -4 13
-2 13 3 1 6 2 16 3 21 0 6 8 15 16 20 13 8 12 10 -2 10 -16 0 -23 -11 -19 -32
0 -5 -3 -8 -8 -8 -12 0 -21 26 -13 35 11 10 11 65 0 65 -5 0 -7 4 -3 9 8 14
-9 21 -25 10 -11 -6 -12 -9 -2 -9 7 0 10 -5 6 -12 -4 -6 -3 -8 4 -4 6 3 13 2
17 -4 3 -5 1 -10 -6 -10 -10 0 -10 -3 -1 -12 15 -15 15 -28 0 -28 -6 0 -9 3
-5 6 3 3 -3 20 -13 36 -10 17 -16 38 -12 46 3 10 1 13 -6 8 -7 -4 -12 -2 -12
3 0 22 -2 26 -17 44 -9 9 -12 17 -7 17 5 0 2 5 -6 11 -12 9 -12 10 3 5 13 -4
8 4 -12 25 -17 17 -29 34 -26 39 3 5 1 11 -5 15 -5 3 -10 11 -10 16 0 6 4 8 8
5 11 -7 52 22 52 36 0 7 -7 3 -15 -8 -8 -10 -15 -14 -15 -9 0 6 -4 4 -9 -4 -7
-11 -10 -9 -16 8 -3 11 -11 21 -18 21 -8 0 -8 -3 1 -12 14 -14 16 -28 4 -28
-5 0 -14 16 -22 35 -7 19 -18 32 -23 28 -5 -3 -4 4 3 16 12 23 0 51 -22 51 -5
0 -2 -7 6 -16 15 -14 14 -34 -1 -34 -4 0 -4 3 0 6 3 4 -1 13 -9 21 -11 12 -12
18 -3 29 6 8 16 11 22 7 6 -4 7 -1 2 6 -5 9 -10 10 -18 2 -6 -6 -18 -11 -26
-11 -11 0 -8 6 9 20 19 14 22 22 14 30 -9 9 -14 9 -19 -1 -5 -8 -4 -10 3 -5 7
4 12 3 12 -2 0 -16 -32 -24 -44 -11 -8 9 -8 10 1 5 9 -5 11 -2 7 8 -3 9 -11
14 -17 13 -6 -1 -11 13 -11 32 -1 19 -7 35 -14 37 -7 1 -8 0 -2 -3 5 -2 10 -9
10 -14 0 -6 -6 -7 -12 -3 -9 5 -9 2 1 -9 7 -9 9 -17 4 -17 -5 0 -20 20 -32 45
-23 46 -35 59 -25 28 5 -15 4 -15 -4 -3 -7 9 -8 18 -1 26 8 9 5 11 -10 7 -13
-3 -21 -1 -21 6 0 7 5 9 12 5 7 -5 8 -3 4 5 -5 7 -15 10 -23 7 -8 -3 -11 -1
-8 4 3 6 1 10 -4 10 -6 0 -11 7 -11 15 0 8 5 15 12 15 6 0 8 3 5 6 -4 4 -13 1
-22 -6 -9 -8 -15 -8 -15 -2 0 6 5 14 10 17 6 3 10 11 10 18 0 6 -6 2 -14 -8
-11 -16 -15 -17 -29 -4 -14 13 -13 17 6 39 21 23 21 24 1 7 -11 -9 -27 -17
-35 -17 -10 1 -9 4 4 14 16 12 16 14 2 20 -9 3 -13 2 -10 -4 3 -6 -1 -10 -10
-10 -12 0 -15 6 -11 23 3 12 3 16 0 10 -3 -7 -10 -13 -15 -13 -6 0 -7 5 -4 10
3 6 -1 10 -9 10 -9 0 -16 5 -16 10 0 6 -4 10 -10 10 -5 0 -25 15 -43 33 -19
18 -50 43 -70 57 -20 14 -37 29 -37 34 0 5 9 1 20 -9 11 -10 20 -13 20 -7 0 7
-4 12 -10 12 -5 0 -7 6 -4 14 3 8 1 17 -5 21 -6 3 -9 0 -5 -8 8 -22 -41 -15
-71 11 -14 12 -29 22 -35 22 -14 0 -32 38 -20 45 5 3 7 12 4 19 -5 12 -11 11
-35 -2 -26 -15 -30 -15 -39 -2 -5 8 -13 15 -17 15 -20 1 -73 37 -68 45 4 6 -1
7 -11 3 -13 -5 -15 -3 -9 7 6 10 4 12 -9 7 -18 -7 -75 17 -88 36 -4 6 -4 15
-1 21 3 5 1 6 -6 2 -6 -4 -9 -12 -6 -17 3 -5 -1 -6 -9 -3 -19 7 -21 24 -4 24
6 0 8 3 5 6 -4 4 -12 2 -20 -4 -10 -8 -20 -8 -38 1 -13 7 -57 23 -96 36 -49
16 -73 30 -74 40 0 10 -2 12 -6 4 -5 -13 -50 -8 -67 8 -5 4 -15 5 -22 2 -8 -3
-17 3 -20 12 -5 13 -9 14 -15 3 -8 -11 -11 -11 -18 1 -5 7 -13 11 -18 8 -15
-9 -97 14 -110 31 -12 14 -13 14 -13 -2 0 -9 -4 -15 -10 -11 -5 3 -7 12 -4 19
3 8 1 17 -4 20 -5 3 -9 -2 -8 -11 0 -9 -5 -18 -13 -21 -10 -3 -11 0 -5 9 6 12
5 12 -8 1 -10 -8 -18 -9 -22 -3 -4 5 -20 8 -36 6 -32 -4 -37 3 -17 24 10 11 8
11 -10 0 -12 -7 -19 -17 -16 -22 3 -5 -2 -5 -13 0 -11 5 -34 8 -51 8 -18 0
-33 3 -33 8 0 4 -6 5 -12 0 -16 -10 -36 -10 -70 -1 -16 4 -30 2 -34 -4 -4 -7
-9 -6 -14 2 -6 9 -12 9 -30 0 -20 -11 -21 -10 -15 9 8 27 3 27 -13 0z m1239
-332 c-6 -8 -7 -18 -3 -23 4 -4 -1 -2 -11 5 -14 11 -15 16 -5 22 20 13 32 10
19 -4z m994 -1757 c3 -5 1 -10 -4 -10 -6 0 -11 5 -11 10 0 6 2 10 4 10 3 0 8
-4 11 -10z m25 -61 c9 -16 8 -25 -6 -40 -23 -26 -31 -24 -31 6 0 14 3 25 8 25
4 0 6 -9 4 -20 -2 -12 0 -18 6 -15 5 4 7 11 4 16 -4 5 0 9 7 9 7 1 2 7 -11 14
-23 12 -22 15 6 25 1 1 7 -8 13 -20z m-20 -73 c0 -3 -4 -8 -10 -11 -5 -3 -10
-1 -10 4 0 6 5 11 10 11 6 0 10 -2 10 -4z m-65 -495 c-4 10 0 16 10 16 20 0
19 -7 -9 -41 -14 -16 -22 -36 -19 -44 4 -9 1 -13 -6 -11 -7 3 -12 8 -12 12 1
4 1 14 1 23 0 8 5 12 10 9 6 -3 10 -1 10 4 0 6 -6 11 -12 12 -10 0 -10 2 -1 5
7 3 9 13 6 22 -4 13 -2 12 11 -3 11 -13 14 -15 11 -4z m-31 -87 c9 -3 16 -12
16 -19 0 -19 -34 -45 -48 -36 -10 6 -10 10 2 20 8 7 12 19 9 27 -6 16 -2 17
21 8z m-22 -129 c4 -5 -2 -15 -13 -23 -15 -11 -17 -17 -8 -33 9 -19 9 -19 -10
-10 -26 14 -34 28 -21 36 6 4 7 11 4 17 -5 7 -2 8 6 3 10 -6 12 -4 7 9 -5 12
-2 16 11 14 9 -2 20 -7 24 -13z m-42 -94 c0 -6 -4 -13 -10 -16 -5 -3 -10 1
-10 9 0 9 5 16 10 16 6 0 10 -4 10 -9z m-3880 -235 c0 -3 -4 -8 -10 -11 -5 -3
-10 -1 -10 4 0 6 5 11 10 11 6 0 10 -2 10 -4z m3725 -76 c3 -5 2 -10 -4 -10
-5 0 -13 5 -16 10 -3 6 -2 10 4 10 5 0 13 -4 16 -10z m-57 -84 c-7 -8 -15 -12
-17 -11 -5 6 10 25 20 25 5 0 4 -6 -3 -14z m-502 -477 c8 -13 -13 -36 -23 -24
-5 4 -2 10 6 13 11 4 11 6 0 13 -9 6 -10 9 -2 9 6 0 15 -5 19 -11z m29 -9 c3
-5 1 -10 -4 -10 -6 0 -11 5 -11 10 0 6 2 10 4 10 3 0 8 -4 11 -10z m-70 -21
c-5 -26 -25 -50 -35 -44 -4 2 -15 -4 -25 -15 -9 -10 -23 -16 -30 -14 -7 3 -20
-5 -29 -18 -14 -19 -18 -21 -26 -8 -12 18 26 51 49 42 10 -4 12 -1 6 9 -4 8
-5 11 -1 7 4 -3 15 0 24 7 42 35 67 54 69 55 1 0 0 -9 -2 -21z m-235 -174
c-14 -17 -30 -20 -30 -4 0 5 4 8 9 4 5 -3 12 -1 16 5 3 5 9 10 12 10 3 0 0 -7
-7 -15z m-1890 -41 c0 -8 -5 -12 -10 -9 -6 4 -8 11 -5 16 9 14 15 11 15 -7z
m-796 -126 c-3 -5 -12 -1 -19 9 -7 10 -11 22 -8 27 4 5 12 1 19 -9 7 -10 11
-22 8 -27z m106 32 c0 -5 -5 -10 -11 -10 -5 0 -7 5 -4 10 3 6 8 10 11 10 2 0
4 -4 4 -10z m1101 -34 c5 3 9 0 9 -6 0 -15 -23 -7 -26 8 -1 7 0 8 3 2 2 -5 9
-8 14 -4z m123 -27 c-4 -8 1 -9 17 -4 21 7 22 6 10 -8 -10 -13 -17 -14 -33 -6
-17 9 -18 13 -7 20 19 12 22 11 13 -2z"/>
<path d="M4622 1965 c4 -4 3 -14 -4 -22 -6 -7 -8 -16 -5 -19 3 -3 10 3 16 15
8 15 8 22 -1 27 -7 4 -10 4 -6 -1z"/>
<path d="M4576 1821 c-14 -15 -15 -21 -4 -27 7 -4 10 -3 5 1 -4 5 0 17 10 27
9 10 14 18 11 18 -3 0 -13 -9 -22 -19z"/>
<path d="M3794 835 c-4 -8 -9 -13 -14 -10 -4 2 -18 -8 -31 -23 l-24 -27 26 23
c14 12 28 20 31 16 4 -3 11 4 18 15 6 12 8 21 5 21 -3 0 -8 -7 -11 -15z"/>
<path d="M3686 775 c-11 -8 -15 -15 -9 -15 6 0 16 7 23 15 16 19 11 19 -14 0z"/>
<path d="M2816 4773 c-6 -14 -5 -15 5 -6 7 7 10 15 7 18 -3 3 -9 -2 -12 -12z"/>
<path d="M3093 4775 c0 -8 4 -12 9 -9 5 3 6 10 3 15 -9 13 -12 11 -12 -6z"/>
<path d="M2225 4770 c-3 -6 1 -7 9 -4 18 7 21 14 7 14 -6 0 -13 -4 -16 -10z"/>
<path d="M2155 4761 c-3 -5 -2 -12 3 -15 5 -3 9 1 9 9 0 17 -3 19 -12 6z"/>
<path d="M2180 4766 c0 -2 7 -7 16 -10 8 -3 12 -2 9 4 -6 10 -25 14 -25 6z"/>
<path d="M2121 4744 c0 -11 3 -14 6 -6 3 7 2 16 -1 19 -3 4 -6 -2 -5 -13z"/>
<path d="M2970 4750 c-9 -6 -10 -10 -3 -10 6 0 15 5 18 10 8 12 4 12 -15 0z"/>
<path d="M3030 4750 c-11 -7 -11 -10 -2 -10 7 0 10 -4 7 -10 -4 -6 1 -7 11 -3
11 4 13 8 6 11 -7 2 -10 8 -6 13 7 11 3 11 -16 -1z"/>
<path d="M1999 4748 c-5 -18 -6 -38 -1 -34 7 8 12 36 6 36 -2 0 -4 -1 -5 -2z"/>
<path d="M3107 4729 c7 -9 10 -19 6 -22 -3 -4 -1 -7 5 -7 17 0 15 16 -5 31
-16 12 -17 12 -6 -2z"/>
<path d="M3172 4728 c2 -7 -5 -12 -14 -12 -25 2 -22 -2 13 -20 25 -13 29 -13
19 -1 -6 8 -9 19 -6 24 4 5 2 13 -4 16 -6 4 -9 1 -8 -7z"/>
<path d="M2028 4723 c7 -3 16 -2 19 1 4 3 -2 6 -13 5 -11 0 -14 -3 -6 -6z"/>
<path d="M3230 4689 c0 -5 5 -7 10 -4 6 3 10 8 10 11 0 2 -4 4 -10 4 -5 0 -10
-5 -10 -11z"/>
<path d="M3256 4685 c-9 -26 -7 -32 5 -12 6 10 9 21 6 23 -2 3 -7 -2 -11 -11z"/>
<path d="M3275 4669 c-4 -6 -5 -12 -2 -15 2 -3 7 2 10 11 7 17 1 20 -8 4z"/>
<path d="M3430 4672 c0 -5 7 -9 15 -9 8 0 12 4 9 9 -3 4 -9 8 -15 8 -5 0 -9
-4 -9 -8z"/>
<path d="M1835 4660 c-3 -6 1 -7 9 -4 18 7 21 14 7 14 -6 0 -13 -4 -16 -10z"/>
<path d="M3315 4659 c-4 -6 -5 -12 -2 -15 2 -3 7 2 10 11 7 17 1 20 -8 4z"/>
<path d="M3350 4651 c0 -5 5 -13 10 -16 6 -3 10 -2 10 4 0 5 -4 13 -10 16 -5
3 -10 2 -10 -4z"/>
<path d="M3380 4655 c0 -2 6 -8 13 -14 10 -8 14 -7 14 2 0 8 -6 14 -14 14 -7
0 -13 -1 -13 -2z"/>
<path d="M1671 4617 c-13 -21 -12 -21 5 -5 10 10 16 20 13 22 -3 3 -11 -5 -18
-17z"/>
<path d="M1705 4630 c-2 -3 5 -6 15 -7 11 -1 22 2 24 5 3 4 -4 8 -15 8 -11 0
-22 -3 -24 -6z"/>
<path d="M3422 4623 c-15 -13 -15 -13 4 -4 14 7 24 7 31 0 6 -6 10 -5 10 4 0
18 -23 18 -45 0z"/>
<path d="M1615 4610 c3 -5 8 -10 11 -10 2 0 4 5 4 10 0 6 -5 10 -11 10 -5 0
-7 -4 -4 -10z"/>
<path d="M1567 4589 c7 -7 15 -10 18 -7 3 3 -2 9 -12 12 -14 6 -15 5 -6 -5z"/>
<path d="M3481 4588 c-1 -21 15 -32 25 -17 4 7 3 9 -4 5 -6 -3 -13 2 -15 11
-4 16 -5 16 -6 1z"/>
<path d="M3536 4592 c-3 -4 4 -9 15 -9 23 -2 25 3 4 10 -8 4 -16 3 -19 -1z"/>
<path d="M3517 4563 c-4 -6 0 -13 8 -17 8 -3 17 0 21 6 4 6 3 8 -4 4 -5 -3
-12 -1 -14 6 -3 8 -6 9 -11 1z"/>
<path d="M3577 4549 c7 -7 15 -10 18 -7 3 3 -2 9 -12 12 -14 6 -15 5 -6 -5z"/>
<path d="M3601 4523 c-1 -17 16 -25 25 -12 4 7 3 9 -4 5 -5 -3 -13 0 -15 6 -4
9 -6 10 -6 1z"/>
<path d="M3635 4490 c3 -5 8 -10 11 -10 2 0 4 5 4 10 0 6 -5 10 -11 10 -5 0
-7 -4 -4 -10z"/>
<path d="M3668 4488 c5 -5 16 -8 23 -6 8 3 3 7 -10 11 -17 4 -21 3 -13 -5z"/>
<path d="M3790 4450 c0 -5 5 -10 11 -10 5 0 7 5 4 10 -3 6 -8 10 -11 10 -2 0
-4 -4 -4 -10z"/>
<path d="M3796 4401 c-3 -4 3 -16 14 -26 12 -10 20 -13 20 -7 0 7 -5 12 -11
12 -5 0 -8 4 -4 9 3 5 1 12 -4 15 -5 4 -12 2 -15 -3z"/>
<path d="M1240 4345 c-11 -13 -10 -14 4 -9 9 3 16 10 16 15 0 13 -6 11 -20 -6z"/>
<path d="M3910 4320 c-8 -5 -10 -10 -5 -10 6 0 17 5 25 10 8 5 11 10 5 10 -5
0 -17 -5 -25 -10z"/>
<path d="M1176 4303 c-6 -14 -5 -15 5 -6 7 7 10 15 7 18 -3 3 -9 -2 -12 -12z"/>
<path d="M3925 4300 c-3 -6 1 -7 9 -4 18 7 21 14 7 14 -6 0 -13 -4 -16 -10z"/>
<path d="M3946 4277 c3 -10 9 -15 12 -12 3 3 0 11 -7 18 -10 9 -11 8 -5 -6z"/>
<path d="M3990 4271 c0 -6 4 -13 10 -16 6 -3 7 1 4 9 -7 18 -14 21 -14 7z"/>
<path d="M1125 4252 c-10 -7 -18 -32 -10 -32 2 0 9 9 15 20 12 22 11 24 -5 12z"/>
<path d="M3982 4244 c10 -10 20 -16 22 -13 3 3 -5 11 -17 18 -21 13 -21 12 -5
-5z"/>
<path d="M4020 4226 c0 -2 7 -7 16 -10 8 -3 12 -2 9 4 -6 10 -25 14 -25 6z"/>
<path d="M4067 4203 c3 -7 6 -13 8 -13 2 0 5 6 8 13 3 8 -1 14 -8 14 -7 0 -11
-6 -8 -14z"/>
<path d="M4097 4203 c-10 -9 -9 -23 1 -23 5 0 9 7 9 15 0 17 -1 18 -10 8z"/>
<path d="M997 4149 c7 -7 15 -10 18 -7 3 3 -2 9 -12 12 -14 6 -15 5 -6 -5z"/>
<path d="M975 4130 c-3 -5 -1 -10 4 -10 6 0 11 5 11 10 0 6 -2 10 -4 10 -3 0
-8 -4 -11 -10z"/>
<path d="M4115 4130 c-3 -5 -1 -10 4 -10 6 0 11 5 11 10 0 6 -2 10 -4 10 -3 0
-8 -4 -11 -10z"/>
<path d="M4180 4068 c0 -4 7 -8 15 -8 8 0 15 4 15 8 0 5 -7 9 -15 9 -8 0 -15
-4 -15 -9z"/>
<path d="M920 4040 c-6 -11 -8 -20 -6 -20 3 0 10 9 16 20 6 11 8 20 6 20 -3 0
-10 -9 -16 -20z"/>
<path d="M4215 4050 c-3 -5 -1 -10 4 -10 6 0 11 5 11 10 0 6 -2 10 -4 10 -3 0
-8 -4 -11 -10z"/>
<path d="M4233 4027 c-3 -5 0 -14 6 -20 9 -9 10 -7 5 8 -7 17 -5 18 7 8 13
-10 16 -10 16 0 0 15 -25 18 -34 4z"/>
<path d="M889 3993 c-13 -16 -12 -17 4 -4 9 7 17 15 17 17 0 8 -8 3 -21 -13z"/>
<path d="M4336 3997 c3 -10 9 -15 12 -12 3 3 0 11 -7 18 -10 9 -11 8 -5 -6z"/>
<path d="M4250 3985 c-11 -13 -10 -14 4 -9 9 3 16 10 16 15 0 13 -6 11 -20 -6z"/>
<path d="M4310 3920 c13 -24 17 -25 17 -5 0 8 -6 16 -14 19 -11 4 -11 1 -3
-14z"/>
<path d="M4370 3890 c0 -5 5 -10 11 -10 5 0 7 5 4 10 -3 6 -8 10 -11 10 -2 0
-4 -4 -4 -10z"/>
<path d="M730 3850 c0 -5 5 -10 11 -10 5 0 7 5 4 10 -3 6 -8 10 -11 10 -2 0
-4 -4 -4 -10z"/>
<path d="M4415 3850 c-3 -5 -1 -10 4 -10 6 0 11 5 11 10 0 6 -2 10 -4 10 -3 0
-8 -4 -11 -10z"/>
<path d="M735 3819 c-4 -6 -5 -12 -2 -15 2 -3 7 2 10 11 7 17 1 20 -8 4z"/>
<path d="M4400 3785 c-11 -13 -10 -14 6 -8 17 6 18 5 4 -13 -14 -17 -14 -18 2
-6 9 8 14 20 11 28 -6 18 -8 17 -23 -1z"/>
<path d="M697 3768 c2 -5 10 -8 18 -8 8 0 16 3 18 8 3 4 -5 7 -18 7 -13 0 -21
-3 -18 -7z"/>
<path d="M4456 3772 c-2 -4 -1 -14 4 -22 7 -11 9 -9 7 8 -1 24 -3 26 -11 14z"/>
<path d="M4436 3747 c3 -10 9 -15 12 -12 3 3 0 11 -7 18 -10 9 -11 8 -5 -6z"/>
<path d="M686 3703 c-6 -14 -5 -15 5 -6 7 7 10 15 7 18 -3 3 -9 -2 -12 -12z"/>
<path d="M4456 3682 c-3 -5 1 -9 9 -9 8 0 12 4 9 9 -3 4 -7 8 -9 8 -2 0 -6 -4
-9 -8z"/>
<path d="M4513 3665 c0 -8 4 -12 9 -9 5 3 6 10 3 15 -9 13 -12 11 -12 -6z"/>
<path d="M639 3668 c-5 -18 -6 -38 -1 -34 7 8 12 36 6 36 -2 0 -4 -1 -5 -2z"/>
<path d="M4455 3650 c3 -5 8 -10 11 -10 2 0 4 5 4 10 0 6 -5 10 -11 10 -5 0
-7 -4 -4 -10z"/>
<path d="M575 3630 c3 -5 8 -10 11 -10 2 0 4 5 4 10 0 6 -5 10 -11 10 -5 0 -7
-4 -4 -10z"/>
<path d="M4480 3630 c-13 -8 -12 -10 3 -10 9 0 17 5 17 10 0 12 -1 12 -20 0z"/>
<path d="M4516 3595 c5 -21 3 -24 -12 -19 -15 6 -16 4 -7 -6 6 -7 16 -9 22 -6
12 8 11 56 -1 56 -5 0 -6 -11 -2 -25z"/>
<path d="M4566 3568 c3 -5 10 -6 15 -3 13 9 11 12 -6 12 -8 0 -12 -4 -9 -9z"/>
<path d="M4531 3557 c2 -1 13 -9 24 -17 19 -14 19 -14 6 3 -7 9 -18 17 -24 17
-6 0 -8 -1 -6 -3z"/>
<path d="M4520 3530 c20 -13 33 -13 25 0 -3 6 -14 10 -23 10 -15 0 -15 -2 -2
-10z"/>
<path d="M4576 3523 c-6 -14 -5 -15 5 -6 7 7 10 15 7 18 -3 3 -9 -2 -12 -12z"/>
<path d="M550 3515 c0 -7 30 -13 34 -7 3 4 -4 9 -15 9 -10 1 -19 0 -19 -2z"/>
<path d="M4593 3457 c0 -8 6 -14 14 -14 9 0 10 4 2 14 -6 7 -12 13 -14 13 -1
0 -2 -6 -2 -13z"/>
<path d="M486 3412 c-3 -5 1 -9 9 -9 8 0 12 4 9 9 -3 4 -7 8 -9 8 -2 0 -6 -4
-9 -8z"/>
<path d="M4633 3404 c-3 -8 -2 -19 3 -24 5 -5 9 1 9 16 0 28 -3 30 -12 8z"/>
<path d="M4601 3366 c-9 -10 -9 -16 -1 -21 17 -10 37 12 24 25 -8 8 -15 6 -23
-4z m19 -6 c0 -5 -5 -10 -11 -10 -5 0 -7 5 -4 10 3 6 8 10 11 10 2 0 4 -4 4
-10z"/>
<path d="M4628 3326 c-16 -33 -16 -34 10 -46 35 -17 54 -21 46 -9 -3 5 -8 7
-12 5 -4 -2 -16 2 -26 10 -17 12 -18 17 -7 40 6 15 10 28 8 30 -2 2 -11 -11
-19 -30z"/>
<path d="M455 3290 c3 -5 8 -10 11 -10 2 0 4 5 4 10 0 6 -5 10 -11 10 -5 0 -7
-4 -4 -10z"/>
<path d="M4735 3190 c-3 -5 -1 -10 4 -10 6 0 11 5 11 10 0 6 -2 10 -4 10 -3 0
-8 -4 -11 -10z"/>
<path d="M4655 3163 c2 -10 4 -20 5 -23 1 -3 2 -8 2 -12 -1 -3 5 -12 13 -18
21 -18 19 -35 -2 -19 -16 12 -16 12 -6 -1 6 -8 11 -19 11 -23 0 -5 4 -12 8
-15 4 -4 4 -2 0 5 -3 6 -2 14 4 18 5 3 10 -2 11 -12 0 -11 3 -13 6 -5 3 7 -2
24 -11 37 -12 19 -13 25 -4 25 9 0 8 3 -2 10 -8 5 -16 14 -16 20 -1 5 -2 15
-3 20 0 6 -5 10 -10 10 -5 0 -8 -8 -6 -17z"/>
<path d="M435 3109 c-1 -28 2 -34 5 -14 1 6 6 17 10 26 6 10 5 16 -3 16 -7 0
-12 -13 -12 -28z"/>
<path d="M4710 3110 c0 -5 5 -10 11 -10 5 0 7 5 4 10 -3 6 -8 10 -11 10 -2 0
-4 -4 -4 -10z"/>
<path d="M4746 3052 c-3 -5 1 -9 9 -9 8 0 12 4 9 9 -3 4 -7 8 -9 8 -2 0 -6 -4
-9 -8z"/>
<path d="M406 3008 c3 -5 10 -6 15 -3 13 9 11 12 -6 12 -8 0 -12 -4 -9 -9z"/>
<path d="M4705 3012 c-15 -10 -13 -66 3 -75 9 -6 10 -12 2 -21 -7 -10 -6 -17
5 -26 8 -7 15 -17 15 -22 0 -6 -6 -6 -14 1 -12 10 -14 9 -11 -6 2 -10 4 -20 5
-23 1 -3 2 -8 1 -12 0 -5 5 -8 12 -8 8 0 7 -4 -3 -10 -10 -6 -11 -10 -2 -10 6
0 12 -5 12 -11 0 -5 -5 -7 -10 -4 -18 11 -6 -16 18 -43 12 -14 25 -22 29 -19
3 4 2 7 -4 7 -23 0 -23 31 0 40 13 5 16 9 7 9 -9 1 -21 -4 -27 -10 -8 -8 -11
-4 -10 15 2 27 7 31 23 19 5 -5 2 -1 -8 8 -9 9 -14 19 -11 23 4 3 1 6 -6 6 -7
0 -9 5 -6 10 4 6 11 7 17 4 6 -4 6 1 -1 14 -6 12 -16 24 -21 27 -6 4 -7 11 -4
17 4 5 14 -2 24 -17 11 -17 20 -23 25 -16 3 6 11 8 17 5 7 -4 8 -2 4 4 -4 6
-12 9 -19 6 -18 -7 -63 56 -47 66 8 5 7 9 -4 13 -9 4 -13 13 -10 22 3 8 10 12
15 9 5 -3 9 0 9 5 0 13 -11 14 -25 3z"/>
<path d="M4732 2991 c-11 -7 -11 -9 0 -14 9 -3 15 1 15 9 0 8 -1 14 -1 14 -1
0 -7 -4 -14 -9z"/>
<path d="M385 2969 c-3 -4 2 -6 10 -5 21 3 28 13 10 13 -9 0 -18 -4 -20 -8z"/>
<path d="M4735 2951 c-3 -5 -2 -12 3 -15 5 -3 9 1 9 9 0 17 -3 19 -12 6z"/>
<path d="M398 2943 c7 -3 16 -2 19 1 4 3 -2 6 -13 5 -11 0 -14 -3 -6 -6z"/>
<path d="M4770 2929 c0 -5 5 -7 10 -4 6 3 10 8 10 11 0 2 -4 4 -10 4 -5 0 -10
-5 -10 -11z"/>
<path d="M396 2893 c-6 -14 -5 -15 5 -6 7 7 10 15 7 18 -3 3 -9 -2 -12 -12z"/>
<path d="M4770 2830 c0 -5 5 -10 11 -10 5 0 7 5 4 10 -3 6 -8 10 -11 10 -2 0
-4 -4 -4 -10z"/>
<path d="M4750 2700 c0 -5 5 -10 11 -10 5 0 7 5 4 10 -3 6 -8 10 -11 10 -2 0
-4 -4 -4 -10z"/>
<path d="M4756 2565 c-3 -9 -6 -22 -5 -28 0 -7 5 -1 10 12 5 13 8 26 5 28 -2
2 -6 -3 -10 -12z"/>
<path d="M380 2530 c-9 -6 -10 -10 -3 -10 6 0 15 5 18 10 8 12 4 12 -15 0z"/>
<path d="M4740 2451 c-8 -6 -18 -7 -22 -5 -12 8 -5 -19 7 -28 6 -5 4 -8 -5 -8
-13 0 -13 -1 0 -10 13 -9 13 -11 0 -20 -19 -12 -19 -32 0 -48 13 -12 13 -13
-2 -9 -16 6 -20 -16 -5 -28 4 -3 5 -2 2 1 -2 4 5 14 17 24 15 12 18 21 12 31
-5 8 -9 24 -9 37 -1 17 3 21 20 17 17 -4 17 -4 -2 6 -13 7 -23 16 -23 21 0 5
3 7 8 5 4 -3 13 1 20 9 14 16 4 18 -18 5z m-2 -117 c-4 -3 -12 5 -18 18 -12
22 -12 22 6 6 10 -10 15 -20 12 -24z"/>
<path d="M376 2433 c-6 -14 -5 -15 5 -6 7 7 10 15 7 18 -3 3 -9 -2 -12 -12z"/>
<path d="M390 2415 c0 -5 5 -17 10 -25 5 -8 10 -10 10 -5 0 6 -5 17 -10 25 -5
8 -10 11 -10 5z"/>
<path d="M4755 2379 c-4 -6 -5 -12 -2 -15 2 -3 7 2 10 11 7 17 1 20 -8 4z"/>
<path d="M390 2351 c0 -5 5 -13 10 -16 6 -3 10 -2 10 4 0 5 -4 13 -10 16 -5 3
-10 2 -10 -4z"/>
<path d="M4770 2349 c0 -5 5 -7 10 -4 6 3 10 8 10 11 0 2 -4 4 -10 4 -5 0 -10
-5 -10 -11z"/>
<path d="M4735 2298 c-8 -13 -21 -23 -28 -23 -7 0 -11 -11 -11 -25 1 -14 -3
-29 -10 -33 -7 -6 -5 -7 6 -4 12 4 16 0 15 -14 -1 -22 -12 -25 -21 -6 -3 6 -3
1 0 -12 5 -17 3 -21 -6 -16 -9 6 -11 4 -5 -6 5 -7 10 -22 10 -32 1 -10 8 -23
15 -30 10 -10 10 -8 1 10 -16 31 -14 38 7 22 15 -12 15 -11 -1 8 -18 20 -18
21 3 36 15 11 18 16 8 20 -11 4 -11 6 0 6 7 1 10 6 6 13 -5 7 -2 9 9 5 11 -4
15 -1 12 14 -2 10 -7 24 -10 29 -4 6 1 22 9 35 21 31 13 33 -9 3z m-1 -53 c2
-7 -2 -16 -10 -19 -8 -3 -14 -2 -15 2 0 4 -2 15 -4 24 -4 20 21 14 29 -7z"/>
<path d="M375 2290 c3 -5 8 -10 11 -10 2 0 4 5 4 10 0 6 -5 10 -11 10 -5 0 -7
-4 -4 -10z"/>
<path d="M4755 2289 c-3 -4 2 -6 10 -5 21 3 28 13 10 13 -9 0 -18 -4 -20 -8z"/>
<path d="M4770 2250 c0 -5 5 -10 11 -10 5 0 7 5 4 10 -3 6 -8 10 -11 10 -2 0
-4 -4 -4 -10z"/>
<path d="M398 2233 c7 -3 16 -2 19 1 4 3 -2 6 -13 5 -11 0 -14 -3 -6 -6z"/>
<path d="M406 2208 c3 -5 10 -6 15 -3 13 9 11 12 -6 12 -8 0 -12 -4 -9 -9z"/>
<path d="M4746 2188 c3 -5 10 -6 15 -3 13 9 11 12 -6 12 -8 0 -12 -4 -9 -9z"/>
<path d="M4731 2154 c0 -11 3 -14 6 -6 3 7 2 16 -1 19 -3 4 -6 -2 -5 -13z"/>
<path d="M400 2156 c0 -2 8 -10 18 -17 15 -13 16 -12 3 4 -13 16 -21 21 -21
13z"/>
<path d="M4726 2113 c-6 -14 -5 -15 5 -6 7 7 10 15 7 18 -3 3 -9 -2 -12 -12z"/>
<path d="M433 2075 c0 -8 4 -12 9 -9 5 3 6 10 3 15 -9 13 -12 11 -12 -6z"/>
<path d="M385 2070 c-3 -6 1 -7 9 -4 18 7 21 14 7 14 -6 0 -13 -4 -16 -10z"/>
<path d="M4699 2048 c-5 -18 -6 -38 -1 -34 7 8 12 36 6 36 -2 0 -4 -1 -5 -2z"/>
<path d="M443 2008 c-11 -19 -12 -37 -3 -43 5 -3 7 3 5 12 -1 10 2 24 8 31 5
6 7 12 4 12 -3 0 -9 -6 -14 -12z"/>
<path d="M476 1985 c-9 -26 -7 -32 5 -12 6 10 9 21 6 23 -2 3 -7 -2 -11 -11z"/>
<path d="M4696 1963 c-6 -14 -5 -15 5 -6 7 7 10 15 7 18 -3 3 -9 -2 -12 -12z"/>
<path d="M475 1940 c-4 -6 -11 -7 -17 -4 -7 4 -8 2 -4 -5 6 -9 12 -9 24 1 10
7 19 14 21 15 2 2 -1 3 -7 3 -6 0 -14 -5 -17 -10z"/>
<path d="M4660 1909 c0 -5 5 -7 10 -4 6 3 10 8 10 11 0 2 -4 4 -10 4 -5 0 -10
-5 -10 -11z"/>
<path d="M509 1881 c8 -5 10 -14 6 -22 -6 -11 -5 -11 5 -2 14 12 6 33 -13 33
-8 0 -7 -3 2 -9z"/>
<path d="M493 1842 c2 -12 6 -24 10 -28 3 -4 4 4 2 16 -6 30 -16 40 -12 12z"/>
<path d="M4596 1729 c2 -4 -2 -10 -8 -12 -8 -4 -9 -6 -2 -6 6 -1 17 5 23 12 8
10 7 14 -4 14 -8 0 -12 -4 -9 -8z"/>
<path d="M4536 1704 c-3 -9 -11 -12 -18 -8 -10 6 -10 5 0 -8 10 -12 10 -17 -1
-27 -8 -6 -18 -7 -22 -3 -5 4 -5 2 -1 -5 7 -13 35 -7 37 8 1 5 2 14 3 19 0 6
7 15 15 19 8 5 9 11 3 15 -5 3 -13 -1 -16 -10z"/>
<path d="M4560 1690 c-9 -6 -10 -10 -3 -10 6 0 15 5 18 10 8 12 4 12 -15 0z"/>
<path d="M4616 1692 c-3 -5 1 -9 9 -9 8 0 12 4 9 9 -3 4 -7 8 -9 8 -2 0 -6 -4
-9 -8z"/>
<path d="M555 1670 c-3 -5 4 -7 15 -5 11 2 24 -3 30 -13 5 -9 10 -12 10 -5 0
21 -45 40 -55 23z"/>
<path d="M4546 1653 c-6 -14 -5 -15 5 -6 7 7 10 15 7 18 -3 3 -9 -2 -12 -12z"/>
<path d="M575 1610 c3 -5 8 -10 11 -10 2 0 4 5 4 10 0 6 -5 10 -11 10 -5 0 -7
-4 -4 -10z"/>
<path d="M4570 1610 c0 -5 5 -10 11 -10 5 0 7 5 4 10 -3 6 -8 10 -11 10 -2 0
-4 -4 -4 -10z"/>
<path d="M4531 1584 c0 -11 3 -14 6 -6 3 7 2 16 -1 19 -3 4 -6 -2 -5 -13z"/>
<path d="M617 1555 c-4 -8 -3 -16 1 -19 4 -3 9 4 9 15 2 23 -3 25 -10 4z"/>
<path d="M4438 1555 c-4 -4 -3 -16 3 -26 5 -11 7 -19 3 -19 -3 0 -1 -7 6 -15
10 -12 16 -13 26 -4 8 6 14 17 14 23 0 6 -7 3 -14 -7 -8 -10 -17 -14 -20 -9
-3 5 5 21 19 36 13 14 20 26 15 26 -5 0 -15 -9 -24 -21 l-14 -21 -4 22 c-2 12
-6 19 -10 15z"/>
<path d="M631 1517 c-13 -21 -12 -21 5 -5 10 10 16 20 13 22 -3 3 -11 -5 -18
-17z"/>
<path d="M609 1473 c-13 -16 -12 -17 4 -4 9 7 17 15 17 17 0 8 -8 3 -21 -13z"/>
<path d="M630 1409 c0 -5 5 -7 10 -4 6 3 10 8 10 11 0 2 -4 4 -10 4 -5 0 -10
-5 -10 -11z"/>
<path d="M596 1371 c-3 -5 1 -14 8 -20 10 -9 16 -9 21 -1 4 6 4 14 1 17 -3 4
-6 1 -6 -6 0 -7 -5 -9 -10 -6 -6 4 -8 11 -5 16 4 5 4 9 1 9 -3 0 -7 -4 -10 -9z"/>
<path d="M4393 1365 c0 -8 4 -12 9 -9 4 3 8 9 8 15 0 5 -4 9 -8 9 -5 0 -9 -7
-9 -15z"/>
<path d="M4430 1370 c0 -5 5 -10 11 -10 5 0 7 5 4 10 -3 6 -8 10 -11 10 -2 0
-4 -4 -4 -10z"/>
<path d="M575 1290 c-3 -5 -1 -10 4 -10 6 0 11 5 11 10 0 6 -2 10 -4 10 -3 0
-8 -4 -11 -10z"/>
<path d="M4360 1290 c-12 -7 -10 -9 7 -7 12 0 19 5 17 9 -6 10 -6 10 -24 -2z"/>
<path d="M553 1237 c0 -8 6 -14 14 -14 9 0 10 4 2 14 -6 7 -12 13 -14 13 -1 0
-2 -6 -2 -13z"/>
<path d="M4185 1200 c-3 -6 1 -7 9 -4 18 7 21 14 7 14 -6 0 -13 -4 -16 -10z"/>
<path d="M4295 1201 c-3 -5 -2 -12 3 -15 5 -3 9 1 9 9 0 17 -3 19 -12 6z"/>
<path d="M534 1173 c4 -4 16 -8 28 -10 28 -4 18 6 -12 12 -12 2 -20 1 -16 -2z"/>
<path d="M4231 1154 c0 -11 3 -14 6 -6 3 7 2 16 -1 19 -3 4 -6 -2 -5 -13z"/>
<path d="M535 1129 c-3 -4 2 -6 10 -5 21 3 28 13 10 13 -9 0 -18 -4 -20 -8z"/>
<path d="M4121 1127 c-8 -10 -7 -14 2 -14 8 0 14 6 14 14 0 7 -1 13 -2 13 -2
0 -8 -6 -14 -13z"/>
<path d="M4180 1109 c0 -5 5 -7 10 -4 6 3 10 8 10 11 0 2 -4 4 -10 4 -5 0 -10
-5 -10 -11z"/>
<path d="M4256 1103 c-6 -14 -5 -15 5 -6 7 7 10 15 7 18 -3 3 -9 -2 -12 -12z"/>
<path d="M536 1077 c3 -10 9 -15 12 -12 3 3 0 11 -7 18 -10 9 -11 8 -5 -6z"/>
<path d="M4126 1035 c-11 -8 -15 -15 -9 -15 6 0 16 7 23 15 16 19 11 19 -14 0z"/>
<path d="M512 998 c7 -15 15 -23 17 -17 2 6 -4 18 -13 27 -15 15 -15 15 -4
-10z"/>
<path d="M497 946 c-4 -10 -1 -13 8 -9 8 3 12 9 9 14 -7 12 -11 11 -17 -5z"/>
<path d="M4035 950 c-3 -5 -1 -10 4 -10 6 0 11 5 11 10 0 6 -2 10 -4 10 -3 0
-8 -4 -11 -10z"/>
<path d="M493 905 c0 -8 4 -12 9 -9 5 3 6 10 3 15 -9 13 -12 11 -12 -6z"/>
<path d="M3895 902 c-3 -9 -3 -13 1 -9 4 4 13 2 21 -5 20 -17 22 -5 2 14 -16
15 -18 15 -24 0z"/>
<path d="M3985 909 c-3 -4 2 -6 10 -5 21 3 28 13 10 13 -9 0 -18 -4 -20 -8z"/>
<path d="M3955 890 c-3 -5 -1 -10 4 -10 6 0 11 5 11 10 0 6 -2 10 -4 10 -3 0
-8 -4 -11 -10z"/>
<path d="M3990 886 c0 -2 8 -10 18 -17 15 -13 16 -12 3 4 -13 16 -21 21 -21
13z"/>
<path d="M450 871 c0 -6 4 -13 10 -16 6 -3 7 1 4 9 -7 18 -14 21 -14 7z"/>
<path d="M3846 788 c3 -5 10 -6 15 -3 13 9 11 12 -6 12 -8 0 -12 -4 -9 -9z"/>
<path d="M450 770 c0 -5 5 -10 11 -10 5 0 7 5 4 10 -3 6 -8 10 -11 10 -2 0 -4
-4 -4 -10z"/>
<path d="M3773 773 c4 -6 1 -13 -7 -16 -14 -6 -16 -30 -4 -43 4 -3 5 2 4 13
-2 10 4 23 12 29 12 9 12 13 2 19 -8 5 -11 4 -7 -2z"/>
<path d="M393 725 c0 -8 4 -12 9 -9 5 3 6 10 3 15 -9 13 -12 11 -12 -6z"/>
<path d="M435 700 c-16 -17 -16 -20 -3 -15 9 4 19 13 22 21 7 19 2 18 -19 -6z"/>
<path d="M1516 697 c-11 -8 -21 -25 -23 -38 -3 -23 -2 -23 12 -5 8 10 12 22
10 27 -3 4 3 6 12 5 19 -3 31 -26 13 -26 -6 0 -8 5 -4 12 5 7 3 8 -5 4 -7 -5
-10 -11 -7 -14 3 -3 -2 -15 -11 -26 -18 -21 -18 -21 3 -3 24 20 40 11 22 -12
-11 -13 5 -3 42 28 3 2 -3 1 -14 -3 -14 -5 -17 -3 -12 10 3 8 6 17 6 20 0 2 9
-4 20 -14 19 -16 19 -18 3 -29 -9 -7 -12 -13 -6 -13 7 0 15 5 18 11 5 6 12 4
22 -8 11 -13 11 -11 -1 10 -21 35 -4 35 22 1 l19 -27 -2 24 c-1 13 -6 24 -11
24 -5 1 -19 6 -31 13 -13 7 -23 10 -23 6 0 -3 -7 -1 -15 6 -8 7 -15 9 -15 4 0
-4 -6 0 -13 9 -11 15 -15 16 -31 4z"/>
<path d="M3715 690 c3 -5 8 -10 11 -10 2 0 4 5 4 10 0 6 -5 10 -11 10 -5 0 -7
-4 -4 -10z"/>
<path d="M3653 675 c0 -7 6 -11 14 -8 7 3 13 6 13 8 0 2 -6 5 -13 8 -8 3 -14
-1 -14 -8z"/>
<path d="M1385 670 c-4 -6 -10 -8 -14 -5 -5 2 -17 -5 -27 -16 -18 -20 -18 -21
-1 -30 10 -6 14 -15 11 -21 -4 -6 -2 -8 4 -4 6 3 9 15 7 26 -2 10 3 24 11 31
12 9 13 6 10 -20 -2 -17 1 -28 6 -25 5 3 7 12 4 20 -3 7 -1 16 4 19 6 4 10 0
10 -7 0 -9 3 -9 10 2 9 13 14 7 11 -12 0 -5 4 -8 9 -8 15 0 12 9 -10 37 -11
14 -20 21 -20 14 0 -6 -5 -11 -11 -11 -5 0 -7 5 -4 10 3 6 4 10 1 10 -3 0 -8
-5 -11 -10z m-24 -23 c-6 -8 -7 -18 -3 -22 4 -5 1 -5 -6 -1 -10 6 -10 11 -1
22 6 8 14 14 16 14 3 0 0 -6 -6 -13z"/>
<path d="M3502 664 c-7 -8 -17 -12 -23 -9 -5 4 -9 1 -9 -4 0 -6 -3 -10 -7 -10
-22 4 -34 -4 -54 -33 -13 -17 -18 -28 -11 -24 7 4 12 2 12 -6 1 -7 7 -2 15 12
8 14 14 22 15 17 0 -4 17 1 38 11 20 11 44 17 52 15 9 -3 8 0 -3 7 -14 9 -16
15 -6 26 15 19 -2 17 -19 -2z m-15 -30 c-35 -19 -70 -26 -62 -13 4 5 11 7 16
4 5 -4 9 -1 9 5 0 6 4 9 8 6 4 -2 14 -1 22 5 8 5 20 9 25 8 6 0 -3 -7 -18 -15z"/>
<path d="M1293 633 c-3 -10 -8 -21 -10 -26 -3 -4 -1 -7 4 -6 21 4 24 -2 12
-18 -12 -16 -12 -17 2 -6 9 7 18 11 21 8 2 -3 5 2 5 10 0 8 -4 12 -8 10 -4 -3
-10 2 -13 11 -9 22 -8 26 6 18 7 -4 8 -3 4 4 -10 16 -16 15 -23 -5z"/>
<path d="M1256 632 c-3 -5 1 -9 9 -9 8 0 12 4 9 9 -3 4 -7 8 -9 8 -2 0 -6 -4
-9 -8z"/>
<path d="M393 615 c0 -8 4 -12 9 -9 5 3 6 10 3 15 -9 13 -12 11 -12 -6z"/>
<path d="M3553 615 c0 -8 4 -12 9 -9 5 3 6 10 3 15 -9 13 -12 11 -12 -6z"/>
<path d="M1467 609 c7 -7 15 -10 18 -7 3 3 -2 9 -12 12 -14 6 -15 5 -6 -5z"/>
<path d="M1260 601 c0 -6 4 -13 10 -16 6 -3 7 1 4 9 -7 18 -14 21 -14 7z"/>
<path d="M3471 601 c-8 -5 -9 -11 -3 -15 5 -3 12 1 16 9 6 17 6 18 -13 6z"/>
<path d="M1655 590 c3 -5 8 -10 11 -10 2 0 4 5 4 10 0 6 -5 10 -11 10 -5 0 -7
-4 -4 -10z"/>
<path d="M1740 585 c-9 -10 -9 -15 -1 -15 6 0 11 5 11 12 0 9 3 9 11 1 6 -6
18 -9 27 -6 11 5 13 3 7 -8 -7 -12 -6 -12 7 -1 11 9 18 10 23 2 3 -5 1 -10 -4
-10 -6 0 -11 -4 -11 -9 0 -10 19 -9 36 2 19 12 25 -5 6 -21 -9 -8 -4 -6 12 3
26 16 29 16 23 1 -5 -13 -3 -15 11 -7 22 11 51 -8 44 -29 -3 -8 -2 -12 2 -9
11 11 16 50 5 43 -6 -3 -18 1 -27 9 -9 9 -20 16 -24 16 -5 1 -10 2 -13 2 -3 1
-13 2 -23 3 -11 0 -25 6 -33 12 -8 6 -24 10 -36 9 -13 -1 -23 2 -23 7 0 13
-16 9 -30 -7z"/>
<path d="M3497 585 c-4 -8 -3 -16 1 -19 4 -3 9 4 9 15 2 23 -3 25 -10 4z"/>
<path d="M1037 572 c-15 -17 -15 -20 -1 -38 14 -18 15 -18 4 4 -6 13 -7 22 -1
22 5 0 12 -6 15 -12 3 -7 3 -2 0 10 -6 23 -5 23 20 7 14 -10 23 -22 19 -28 -3
-6 -1 -7 5 -3 9 5 8 12 0 26 -7 11 -14 17 -17 15 -2 -3 -10 0 -16 5 -8 7 -17
4 -28 -8z"/>
<path d="M1236 572 c-3 -5 1 -9 9 -9 8 0 12 4 9 9 -3 4 -7 8 -9 8 -2 0 -6 -4
-9 -8z"/>
<path d="M1375 571 c-3 -5 -2 -12 3 -15 5 -3 9 1 9 9 0 17 -3 19 -12 6z"/>
<path d="M1616 563 c-6 -14 -5 -15 5 -6 7 7 10 15 7 18 -3 3 -9 -2 -12 -12z"/>
<path d="M3285 570 c-4 -6 -11 -8 -16 -5 -5 4 -12 -1 -15 -9 -3 -9 -10 -13
-15 -10 -6 3 -16 0 -24 -6 -8 -6 -20 -8 -27 -4 -10 5 -11 4 0 -7 9 -10 15 -10
24 -1 20 20 32 13 13 -8 -10 -11 -15 -23 -12 -27 4 -3 7 -1 7 6 0 7 5 9 12 5
6 -4 8 -3 5 3 -4 6 0 16 8 23 12 10 18 10 30 0 8 -7 15 -9 15 -5 0 4 -8 14
-17 21 -15 12 -15 13 -2 8 10 -3 19 1 22 10 7 18 2 21 -8 6z"/>
<path d="M3430 570 c0 -5 5 -10 10 -10 6 0 10 5 10 10 0 6 -4 10 -10 10 -5 0
-10 -4 -10 -10z"/>
<path d="M3396 543 c-6 -14 -5 -15 5 -6 7 7 10 15 7 18 -3 3 -9 -2 -12 -12z"/>
<path d="M1066 533 c-6 -14 -5 -15 5 -6 7 7 10 15 7 18 -3 3 -9 -2 -12 -12z"/>
<path d="M3145 530 c-4 -6 -10 -8 -15 -5 -5 3 -11 1 -15 -5 -4 -6 -12 -7 -18
-3 -7 4 -6 0 2 -10 14 -18 12 -20 -13 -11 -9 3 -13 11 -9 18 3 6 2 8 -2 3 -5
-4 -9 -23 -10 -41 l-1 -34 22 21 c45 44 50 47 68 29 10 -10 16 -12 16 -4 0 7
-5 12 -11 12 -5 0 -7 5 -3 12 5 7 11 5 21 -7 7 -11 13 -15 13 -9 -1 11 -25 44
-33 44 -3 0 -9 -5 -12 -10z"/>
<path d="M803 513 c-5 -12 -7 -12 -14 -1 -6 9 -9 9 -9 1 0 -6 -8 -10 -18 -8
-10 1 -26 -3 -37 -11 -13 -10 -15 -14 -4 -14 12 0 12 -2 0 -9 -9 -6 -2 -8 22
-8 20 1 35 4 35 7 -2 20 4 29 17 24 10 -4 15 0 15 12 0 16 2 16 10 4 10 -16
-6 -43 -21 -34 -5 3 -9 0 -9 -5 0 -16 9 -13 41 13 21 18 26 27 17 33 -22 13
-39 12 -45 -4z m-33 -24 c0 -12 -19 -21 -30 -14 -6 4 -8 10 -6 14 7 10 36 10
36 0z"/>
<path d="M940 508 c-10 -21 -10 -22 3 -5 11 14 16 15 20 5 4 -9 6 -9 6 -1 2
23 -18 23 -29 1z"/>
<path d="M1973 509 c-2 -23 3 -25 10 -4 4 8 3 16 -1 19 -4 3 -9 -4 -9 -15z"/>
<path d="M1010 509 c0 -5 5 -7 10 -4 6 3 10 8 10 11 0 2 -4 4 -10 4 -5 0 -10
-5 -10 -11z"/>
<path d="M1854 508 c-4 -7 -4 -10 1 -6 4 4 15 2 24 -5 14 -11 14 -10 2 6 -16
20 -18 21 -27 5z"/>
<path d="M1900 516 c0 -2 7 -7 16 -10 8 -3 12 -2 9 4 -6 10 -25 14 -25 6z"/>
<path d="M2000 505 c-7 -9 -10 -18 -7 -21 3 -3 10 4 17 15 13 25 8 27 -10 6z"/>
<path d="M851 481 c-8 -5 -9 -11 -3 -15 5 -3 12 1 16 9 6 17 6 18 -13 6z"/>
<path d="M2133 476 c-3 -5 -1 -6 5 -2 7 4 12 1 12 -6 0 -11 2 -10 9 0 7 11 9
11 14 -2 4 -9 -1 -17 -11 -20 -9 -2 -6 -4 8 -3 15 1 24 -3 23 -10 -2 -7 2 -13
7 -13 15 0 12 16 -5 30 -9 7 -14 18 -12 25 6 13 -42 15 -50 1z"/>
<path d="M950 469 c0 -5 5 -7 10 -4 6 3 10 8 10 11 0 2 -4 4 -10 4 -5 0 -10
-5 -10 -11z"/>
<path d="M2010 472 c0 -4 10 -9 22 -9 18 -2 20 0 8 7 -18 12 -30 13 -30 2z"/>
<path d="M2870 465 c-6 -7 -19 -12 -28 -9 -9 3 -7 -1 6 -8 12 -8 19 -18 15
-23 -4 -4 -2 -5 4 -1 19 11 35 44 24 50 -5 3 -14 -1 -21 -9z m13 -10 c-3 -9
-8 -14 -10 -11 -3 3 -2 9 2 15 9 16 15 13 8 -4z"/>
<path d="M3296 472 c-3 -5 1 -9 9 -9 8 0 12 4 9 9 -3 4 -7 8 -9 8 -2 0 -6 -4
-9 -8z"/>
<path d="M2352 458 c-7 -7 -12 -9 -12 -4 0 4 -7 0 -16 -9 -16 -15 -16 -18 2
-33 14 -14 16 -14 6 -1 -12 16 -7 29 10 29 5 0 6 -5 2 -12 -4 -7 -3 -8 5 -4 6
4 9 11 6 16 -3 5 -1 11 4 14 5 4 14 -6 19 -21 9 -25 10 -26 11 -5 1 12 6 22
12 22 5 0 7 -4 4 -10 -3 -5 0 -7 9 -4 11 4 14 0 11 -13 -2 -12 2 -20 11 -20 9
0 11 4 4 12 -5 7 -7 14 -4 18 3 3 -4 11 -16 17 -12 6 -24 9 -27 6 -4 -3 -11
-1 -18 4 -7 6 -16 5 -23 -2z"/>
<path d="M2756 462 c-4 -4 -12 -8 -17 -8 -5 -1 -13 -2 -19 -3 -5 0 -10 -6 -10
-12 0 -5 4 -8 9 -4 6 3 14 -3 20 -12 6 -11 11 -13 12 -5 1 6 2 16 3 21 0 5 4
13 9 17 7 8 11 -10 7 -36 -2 -18 3 -13 20 20 7 14 9 22 5 18 -5 -4 -13 -3 -20
2 -7 5 -15 6 -19 2z"/>
<path d="M3111 463 c-1 -17 16 -25 25 -12 4 7 3 9 -4 5 -5 -3 -13 0 -15 6 -4
9 -6 10 -6 1z"/>
<path d="M535 450 c-2 -3 0 -12 6 -20 6 -10 9 -11 9 -2 0 6 7 12 15 12 8 0 15
4 15 8 0 9 -40 11 -45 2z"/>
<path d="M827 449 c7 -7 15 -10 18 -7 3 3 -2 9 -12 12 -14 6 -15 5 -6 -5z"/>
<path d="M2096 451 c-3 -4 3 -16 13 -25 14 -13 18 -14 18 -2 0 8 -5 14 -11 13
-6 -1 -10 4 -8 11 2 14 -4 16 -12 3z"/>
<path d="M3010 437 c-10 -19 -9 -20 2 -6 7 9 19 14 26 12 17 -6 15 4 -3 11 -9
3 -19 -3 -25 -17z"/>
<path d="M731 434 c0 -11 3 -14 6 -6 3 7 2 16 -1 19 -3 4 -6 -2 -5 -13z"/>
<path d="M2804 438 c-4 -6 -3 -8 4 -4 6 3 12 -2 14 -11 3 -16 4 -17 10 -1 8
19 -17 33 -28 16z"/>
<path d="M2896 435 c-3 -8 -1 -15 4 -15 6 0 10 7 10 15 0 8 -2 15 -4 15 -2 0
-6 -7 -10 -15z"/>
<path d="M500 432 c0 -4 9 -13 20 -20 19 -12 20 -11 8 8 -13 20 -28 27 -28 12z"/>
<path d="M630 433 c0 -6 8 -17 18 -24 16 -13 16 -13 2 6 -8 11 -16 22 -17 24
-2 2 -3 0 -3 -6z"/>
<path d="M453 415 c0 -8 4 -12 9 -9 5 3 6 10 3 15 -9 13 -12 11 -12 -6z"/>
<path d="M580 416 c0 -2 7 -7 16 -10 8 -3 12 -2 9 4 -6 10 -25 14 -25 6z"/>
<path d="M2240 410 c-9 -6 -10 -10 -3 -10 6 0 15 5 18 10 8 12 4 12 -15 0z"/>
<path d="M2286 412 c-3 -5 1 -9 9 -9 8 0 12 4 9 9 -3 4 -7 8 -9 8 -2 0 -6 -4
-9 -8z"/>
<path d="M2355 410 c-3 -5 -1 -10 4 -10 6 0 11 5 11 10 0 6 -2 10 -4 10 -3 0
-8 -4 -11 -10z"/>
<path d="M2397 405 c-4 -8 -3 -16 1 -19 4 -3 9 4 9 15 2 23 -3 25 -10 4z"/>
<path d="M2790 411 c0 -6 4 -12 8 -15 5 -3 9 1 9 9 0 8 -4 15 -9 15 -4 0 -8
-4 -8 -9z"/>
<path d="M2874 390 c0 -13 4 -16 10 -10 7 7 7 13 0 20 -6 6 -10 3 -10 -10z"/>
<path d="M570 389 c0 -5 5 -7 10 -4 6 3 10 8 10 11 0 2 -4 4 -10 4 -5 0 -10
-5 -10 -11z"/>
<path d="M2750 389 c0 -5 5 -7 10 -4 6 3 10 8 10 11 0 2 -4 4 -10 4 -5 0 -10
-5 -10 -11z"/>
<path d="M535 370 c-3 -5 -1 -10 4 -10 6 0 11 5 11 10 0 6 -2 10 -4 10 -3 0
-8 -4 -11 -10z"/>
<path d="M2336 363 c-6 -14 -5 -15 5 -6 7 7 10 15 7 18 -3 3 -9 -2 -12 -12z"/>
<path d="M2745 350 c-3 -6 1 -7 9 -4 18 7 21 14 7 14 -6 0 -13 -4 -16 -10z"/>
</g>
</svg>
